<mxfile host="app.diagrams.net" modified="2022-09-01T14:26:00.232Z" agent="5.0 (Macintosh; Intel Mac OS X 10_15_7) AppleWebKit/605.1.15 (KHTML, like Gecko) Version/15.5 Safari/605.1.15" etag="JrkkVV8mUvtyPhtdFFsJ" version="20.2.7" type="github">
  <diagram id="ITJkx8O16Wo3wCYVVDW9" name="Page-1">
    <mxGraphModel dx="1115" dy="795" grid="1" gridSize="10" guides="1" tooltips="1" connect="1" arrows="1" fold="1" page="1" pageScale="1" pageWidth="827" pageHeight="1169" math="0" shadow="0">
      <root>
        <mxCell id="0" />
        <mxCell id="1" parent="0" />
        <mxCell id="Ga3TDmFZdKd7LaxTZ1pT-2" value="" style="sketch=0;pointerEvents=1;shadow=0;dashed=0;html=1;strokeColor=none;fillColor=#005F4B;labelPosition=center;verticalLabelPosition=bottom;verticalAlign=top;align=center;outlineConnect=0;shape=mxgraph.veeam2.server_cluster;" vertex="1" parent="1">
          <mxGeometry x="330" y="300" width="150" height="90" as="geometry" />
        </mxCell>
        <mxCell id="Ga3TDmFZdKd7LaxTZ1pT-3" value="Alert Manager" style="text;html=1;align=center;verticalAlign=middle;resizable=0;points=[];autosize=1;strokeColor=none;fillColor=none;arcSize=12;imageWidth=48;imageHeight=48;strokeWidth=9;fontSize=18;" vertex="1" parent="1">
          <mxGeometry x="335" y="260" width="140" height="30" as="geometry" />
        </mxCell>
        <mxCell id="Ga3TDmFZdKd7LaxTZ1pT-4" value="" style="sketch=0;pointerEvents=1;shadow=0;dashed=0;html=1;strokeColor=none;fillColor=#005F4B;labelPosition=center;verticalLabelPosition=bottom;verticalAlign=top;align=center;outlineConnect=0;shape=mxgraph.veeam2.server_cluster;" vertex="1" parent="1">
          <mxGeometry x="580" y="190" width="150" height="90" as="geometry" />
        </mxCell>
        <mxCell id="Ga3TDmFZdKd7LaxTZ1pT-5" value="Email Engine" style="text;html=1;align=center;verticalAlign=middle;resizable=0;points=[];autosize=1;strokeColor=none;fillColor=none;arcSize=12;imageWidth=48;imageHeight=48;strokeWidth=9;fontSize=18;" vertex="1" parent="1">
          <mxGeometry x="590" y="150" width="130" height="30" as="geometry" />
        </mxCell>
      </root>
    </mxGraphModel>
  </diagram>
</mxfile>
